<?xml version="1.0" standalone="no"?>
<!DOCTYPE svg PUBLIC "-//W3C//DTD SVG 20010904//EN"
 "http://www.w3.org/TR/2001/REC-SVG-20010904/DTD/svg10.dtd">
<svg version="1.0" xmlns="http://www.w3.org/2000/svg"
 width="607.000000pt" height="179.000000pt" viewBox="0 0 607.000000 179.000000"
 preserveAspectRatio="xMidYMid meet">

<g transform="translate(0.000000,179.000000) scale(0.100000,-0.100000)"
fill="#000000" stroke="none">
<path d="M4967 1596 c-108 -39 -176 -136 -184 -265 l-5 -76 53 -35 c33 -22 65
-54 84 -84 l30 -49 5 -191 c5 -177 7 -194 28 -228 13 -20 40 -47 60 -60 36
-22 43 -23 297 -23 252 0 261 1 307 23 101 50 158 134 166 243 7 95 -17 159
-82 224 -68 69 -118 85 -257 85 l-107 0 -4 123 c-3 108 -7 128 -30 173 -30 58
-83 108 -142 135 -49 22 -163 25 -219 5z"/>
<path d="M3552 1244 c-16 -11 -22 -25 -22 -54 0 -29 6 -43 22 -54 51 -36 118
-5 118 54 0 59 -67 90 -118 54z"/>
<path d="M340 1170 c0 -36 3 -40 25 -40 l25 0 0 -234 0 -234 -31 -7 c-27 -6
-30 -10 -27 -41 l3 -35 225 0 225 0 0 93 0 93 -47 3 -47 3 -3 -48 -3 -48 -88
-3 -87 -3 2 228 3 228 28 3 c24 3 27 7 27 43 l0 39 -115 0 -115 0 0 -40z"/>
<path d="M4500 1139 c-152 -68 -214 -247 -139 -398 57 -115 149 -161 320 -161
l97 0 4 -122 c3 -102 7 -130 25 -164 33 -63 66 -97 125 -129 47 -27 63 -30
138 -30 75 0 91 3 138 30 101 55 144 129 150 258 l4 87 -148 0 c-167 0 -201
10 -262 71 -69 68 -75 93 -82 304 -5 178 -6 192 -28 223 -13 17 -32 37 -42 42
-10 6 -72 10 -137 10 -97 0 -126 -4 -163 -21z"/>
<path d="M983 1045 c-86 -43 -126 -118 -126 -240 -1 -96 23 -159 75 -198 42
-33 125 -51 186 -42 50 7 122 40 122 55 0 7 -17 52 -26 68 0 1 -21 -7 -45 -18
-52 -23 -88 -25 -134 -6 -36 15 -51 35 -56 76 -4 24 -1 25 64 32 124 12 196
68 200 155 2 61 -19 99 -67 123 -59 28 -129 26 -193 -5z m141 -71 c17 -16 20
-41 10 -69 -10 -24 -78 -55 -124 -55 -45 0 -49 9 -26 64 27 64 103 97 140 60z"/>
<path d="M1545 1054 c-16 -8 -40 -25 -52 -36 l-23 -21 0 31 0 32 -80 0 -80 0
0 -39 c0 -36 3 -40 28 -43 l27 -3 0 -160 0 -160 -28 -3 c-26 -3 -28 -7 -25
-39 l3 -35 110 0 110 0 3 35 c3 32 1 36 -25 39 -15 2 -27 6 -25 11 1 4 2 66 2
137 0 126 1 132 25 155 18 19 35 25 69 25 70 0 77 -17 74 -186 l-3 -139 -28
-3 c-26 -3 -28 -7 -25 -39 l3 -35 110 0 110 0 3 36 c3 32 1 36 -21 36 l-25 0
-4 158 c-4 175 -14 207 -71 242 -39 24 -120 26 -162 4z"/>
<path d="M2042 1058 c-58 -20 -120 -83 -137 -141 -45 -153 19 -304 137 -322
50 -8 119 8 138 30 22 26 26 17 20 -47 -7 -81 -21 -105 -69 -119 -74 -22 -131
4 -131 61 0 19 -5 21 -42 18 l-43 -3 -3 -66 -3 -67 33 -12 c53 -19 170 -24
227 -10 62 15 110 57 130 116 10 27 15 115 18 287 l5 247 -38 17 c-47 20 -195
27 -242 11z m136 -74 c21 -6 22 -10 22 -131 0 -118 -1 -125 -25 -148 -18 -19
-35 -25 -65 -25 -75 0 -108 59 -98 176 9 101 75 152 166 128z"/>
<path d="M3119 1057 c-61 -23 -97 -55 -125 -113 -52 -107 -33 -279 37 -338 65
-55 165 -57 224 -5 l34 30 3 -27 c3 -26 5 -26 73 -26 l70 0 3 35 c3 31 0 36
-20 39 -23 3 -23 3 -26 195 l-2 192 -38 12 c-59 18 -192 21 -233 6z m136 -77
l27 -10 -4 -135 c-3 -132 -4 -135 -30 -162 -34 -34 -95 -38 -127 -9 -64 58
-49 263 22 306 35 22 72 25 112 10z"/>
<path d="M3914 1051 c-22 -10 -56 -37 -76 -60 -90 -105 -81 -312 16 -386 41
-31 124 -49 184 -40 42 6 132 41 132 52 0 4 -30 65 -35 71 -1 1 -22 -7 -46
-18 -93 -42 -179 -10 -191 71 -3 23 0 24 65 31 39 4 88 16 115 30 80 40 113
137 69 209 -33 56 -153 76 -233 40z m130 -77 c51 -50 -17 -124 -115 -124 -43
0 -43 0 -29 52 20 69 104 112 144 72z"/>
<path d="M2387 1053 c-4 -3 -7 -21 -7 -38 0 -28 4 -33 30 -38 l30 -6 0 -148
c0 -161 9 -198 60 -235 54 -40 151 -31 209 18 l30 25 3 -27 c3 -26 4 -26 78
-26 l75 0 3 35 c3 31 0 35 -27 40 l-31 6 0 201 0 200 -85 0 -85 0 0 -40 c0
-32 4 -40 18 -40 36 0 42 -21 42 -133 0 -78 -4 -118 -15 -142 -26 -54 -92 -72
-136 -36 -23 19 -24 24 -27 205 l-4 186 -77 0 c-43 0 -81 -3 -84 -7z"/>
<path d="M3500 1021 c0 -33 4 -40 25 -45 l25 -6 0 -240 0 -240 -26 -16 c-21
-14 -31 -15 -62 -6 -20 6 -37 10 -39 9 -1 -2 -9 -19 -17 -39 l-16 -36 45 -18
c56 -21 135 -15 173 13 55 41 57 53 57 368 l0 290 -82 3 -83 3 0 -40z"/>
</g>
</svg>
